# xmcd
#
# Track frame offsets: 
#        182
#        15475
#        28887
#        41227
#        53967
#        67842
#        81497
#        92777
#        105447
#        117777
#        129207
#        141300
#        154785
#        167995
#        187175
#        199297
#
# Disc length: 2786 seconds
#
# Revision: 1
# Processed by: cddbd v1.5.2PL0 Copyright (c) Steve Scherf et al.
# Submitted via: ExactAudioCopy v1.0b1
#
DISCID=e10ae010
DTITLE=Big Joe Turner - The Very Best of
DYEAR=1998
DGENRE=Blues
TTITLE0=Chains Of Love
TTITLE1=Sweet Sixteen
TTITLE2=Honey Hush
TTITLE3=TV Mama
TTITLE4=Oke-She-Moke-She-Pop
TTITLE5=Share, Rattle and Roll
TTITLE6=Well All Right
TTITLE7=Flip Flop and Fly
TTITLE8=Hide and Seek
TTITLE9=Midnight Cannonball
TTITLE10=The Chicken and the Hawk (Up, Up and Away)
TTITLE11=Boogie Woogie Country Girl
TTITLE12=Corrine Corrina
TTITLE13=You're Driving Me Crazy (What Did I Do[Q])
TTITLE14=Midnight Special Train
TTITLE15=Tomorrow Night
EXTD=
EXTT0=
EXTT1=
EXTT2=
EXTT3=
EXTT4=
EXTT5=
EXTT6=
EXTT7=
EXTT8=
EXTT9=
EXTT10=
EXTT11=
EXTT12=
EXTT13=
EXTT14=
EXTT15=
PLAYORDER=
